<mxfile host="app.diagrams.net" modified="2022-04-04T09:37:49.960Z" agent="5.0 (Windows NT 10.0; Win64; x64) AppleWebKit/537.36 (KHTML, like Gecko) Chrome/99.0.4844.84 Safari/537.36" etag="36pfjqAWXUhXwNoQWMzi" version="17.2.4" type="github">
  <diagram id="R2lEEEUBdFMjLlhIrx00" name="Page-1">
    <mxGraphModel dx="1422" dy="762" grid="1" gridSize="10" guides="1" tooltips="1" connect="1" arrows="1" fold="1" page="1" pageScale="1" pageWidth="850" pageHeight="1100" math="0" shadow="0" extFonts="Permanent Marker^https://fonts.googleapis.com/css?family=Permanent+Marker">
      <root>
        <mxCell id="0" />
        <mxCell id="1" parent="0" />
        <mxCell id="VNDyjXSrR8N72qDSLMql-7" value="커피 카테고리" style="rounded=1;whiteSpace=wrap;html=1;gradientColor=none;direction=east;rotation=0;flipV=1;flipH=1;" vertex="1" parent="1">
          <mxGeometry x="80" y="30" width="120" height="60" as="geometry" />
        </mxCell>
        <mxCell id="VNDyjXSrR8N72qDSLMql-9" value="" style="endArrow=none;html=1;rounded=0;exitX=0.5;exitY=0;exitDx=0;exitDy=0;entryX=0.25;entryY=1;entryDx=0;entryDy=0;" edge="1" parent="1" source="VNDyjXSrR8N72qDSLMql-10" target="VNDyjXSrR8N72qDSLMql-7">
          <mxGeometry width="50" height="50" relative="1" as="geometry">
            <mxPoint x="60" y="160" as="sourcePoint" />
            <mxPoint x="160" y="70" as="targetPoint" />
          </mxGeometry>
        </mxCell>
        <mxCell id="VNDyjXSrR8N72qDSLMql-10" value="&lt;u&gt;카테고리 번호&lt;/u&gt;" style="ellipse;whiteSpace=wrap;html=1;rounded=0;" vertex="1" parent="1">
          <mxGeometry x="20" y="120" width="100" height="40" as="geometry" />
        </mxCell>
        <mxCell id="VNDyjXSrR8N72qDSLMql-12" value="카테고리 이름" style="ellipse;whiteSpace=wrap;html=1;rounded=0;" vertex="1" parent="1">
          <mxGeometry x="160" y="120" width="100" height="40" as="geometry" />
        </mxCell>
        <mxCell id="VNDyjXSrR8N72qDSLMql-13" value="" style="endArrow=none;html=1;rounded=0;exitX=0.5;exitY=0;exitDx=0;exitDy=0;entryX=0.75;entryY=1;entryDx=0;entryDy=0;" edge="1" parent="1" source="VNDyjXSrR8N72qDSLMql-12" target="VNDyjXSrR8N72qDSLMql-7">
          <mxGeometry width="50" height="50" relative="1" as="geometry">
            <mxPoint x="330" y="280" as="sourcePoint" />
            <mxPoint x="380" y="230" as="targetPoint" />
          </mxGeometry>
        </mxCell>
        <mxCell id="VNDyjXSrR8N72qDSLMql-14" value="커피 메뉴" style="rounded=1;whiteSpace=wrap;html=1;" vertex="1" parent="1">
          <mxGeometry x="390" y="30" width="120" height="60" as="geometry" />
        </mxCell>
        <mxCell id="VNDyjXSrR8N72qDSLMql-15" value="" style="endArrow=none;html=1;rounded=0;exitX=0.5;exitY=0;exitDx=0;exitDy=0;entryX=0.25;entryY=1;entryDx=0;entryDy=0;" edge="1" parent="1" source="VNDyjXSrR8N72qDSLMql-16" target="VNDyjXSrR8N72qDSLMql-14">
          <mxGeometry width="50" height="50" relative="1" as="geometry">
            <mxPoint x="390" y="160" as="sourcePoint" />
            <mxPoint x="440" y="90" as="targetPoint" />
          </mxGeometry>
        </mxCell>
        <mxCell id="VNDyjXSrR8N72qDSLMql-16" value="카테고리 번호" style="ellipse;whiteSpace=wrap;html=1;rounded=0;" vertex="1" parent="1">
          <mxGeometry x="320" y="120" width="90" height="40" as="geometry" />
        </mxCell>
        <mxCell id="VNDyjXSrR8N72qDSLMql-17" value="&lt;u&gt;메뉴번호&lt;/u&gt;" style="ellipse;whiteSpace=wrap;html=1;rounded=0;" vertex="1" parent="1">
          <mxGeometry x="360" y="160" width="100" height="40" as="geometry" />
        </mxCell>
        <mxCell id="VNDyjXSrR8N72qDSLMql-18" value="" style="endArrow=none;html=1;rounded=0;exitX=0.5;exitY=0;exitDx=0;exitDy=0;entryX=0.5;entryY=1;entryDx=0;entryDy=0;" edge="1" parent="1" source="VNDyjXSrR8N72qDSLMql-17" target="VNDyjXSrR8N72qDSLMql-14">
          <mxGeometry width="50" height="50" relative="1" as="geometry">
            <mxPoint x="660" y="280" as="sourcePoint" />
            <mxPoint x="440" y="90" as="targetPoint" />
          </mxGeometry>
        </mxCell>
        <mxCell id="VNDyjXSrR8N72qDSLMql-19" value="메뉴 이름" style="ellipse;whiteSpace=wrap;html=1;rounded=0;" vertex="1" parent="1">
          <mxGeometry x="440" y="120" width="90" height="40" as="geometry" />
        </mxCell>
        <mxCell id="VNDyjXSrR8N72qDSLMql-21" value="" style="endArrow=none;html=1;rounded=0;entryX=0.5;entryY=0;entryDx=0;entryDy=0;exitX=0.65;exitY=1;exitDx=0;exitDy=0;exitPerimeter=0;" edge="1" parent="1" source="VNDyjXSrR8N72qDSLMql-14" target="VNDyjXSrR8N72qDSLMql-19">
          <mxGeometry width="50" height="50" relative="1" as="geometry">
            <mxPoint x="490" y="100" as="sourcePoint" />
            <mxPoint x="380" y="230" as="targetPoint" />
          </mxGeometry>
        </mxCell>
        <mxCell id="VNDyjXSrR8N72qDSLMql-22" value="" style="endArrow=none;html=1;rounded=0;entryX=0.5;entryY=0;entryDx=0;entryDy=0;exitX=0.75;exitY=1;exitDx=0;exitDy=0;" edge="1" parent="1" source="VNDyjXSrR8N72qDSLMql-14" target="VNDyjXSrR8N72qDSLMql-36">
          <mxGeometry width="50" height="50" relative="1" as="geometry">
            <mxPoint x="480" y="80" as="sourcePoint" />
            <mxPoint x="565" y="160" as="targetPoint" />
          </mxGeometry>
        </mxCell>
        <mxCell id="VNDyjXSrR8N72qDSLMql-23" value="소속" style="rhombus;whiteSpace=wrap;html=1;rounded=0;" vertex="1" parent="1">
          <mxGeometry x="260" y="42.5" width="80" height="35" as="geometry" />
        </mxCell>
        <mxCell id="VNDyjXSrR8N72qDSLMql-24" value="" style="endArrow=none;html=1;rounded=0;exitX=1;exitY=0.5;exitDx=0;exitDy=0;entryX=0;entryY=0.5;entryDx=0;entryDy=0;" edge="1" parent="1" source="VNDyjXSrR8N72qDSLMql-7" target="VNDyjXSrR8N72qDSLMql-23">
          <mxGeometry width="50" height="50" relative="1" as="geometry">
            <mxPoint x="220" y="70" as="sourcePoint" />
            <mxPoint x="380" y="230" as="targetPoint" />
          </mxGeometry>
        </mxCell>
        <mxCell id="VNDyjXSrR8N72qDSLMql-25" value="" style="endArrow=none;html=1;rounded=0;exitX=1;exitY=0.5;exitDx=0;exitDy=0;entryX=0;entryY=0.5;entryDx=0;entryDy=0;" edge="1" parent="1" source="VNDyjXSrR8N72qDSLMql-23" target="VNDyjXSrR8N72qDSLMql-14">
          <mxGeometry width="50" height="50" relative="1" as="geometry">
            <mxPoint x="210" y="70" as="sourcePoint" />
            <mxPoint x="270" y="70" as="targetPoint" />
          </mxGeometry>
        </mxCell>
        <mxCell id="VNDyjXSrR8N72qDSLMql-27" value="멤버십 회원" style="rounded=1;whiteSpace=wrap;html=1;" vertex="1" parent="1">
          <mxGeometry x="125" y="250" width="120" height="60" as="geometry" />
        </mxCell>
        <mxCell id="VNDyjXSrR8N72qDSLMql-28" value="" style="endArrow=none;html=1;rounded=0;exitX=0.5;exitY=0;exitDx=0;exitDy=0;entryX=0.25;entryY=1;entryDx=0;entryDy=0;" edge="1" parent="1" source="VNDyjXSrR8N72qDSLMql-29" target="VNDyjXSrR8N72qDSLMql-27">
          <mxGeometry width="50" height="50" relative="1" as="geometry">
            <mxPoint x="125" y="380" as="sourcePoint" />
            <mxPoint x="175" y="310" as="targetPoint" />
          </mxGeometry>
        </mxCell>
        <mxCell id="VNDyjXSrR8N72qDSLMql-29" value="&lt;u&gt;회원번호&lt;/u&gt;" style="ellipse;whiteSpace=wrap;html=1;rounded=0;" vertex="1" parent="1">
          <mxGeometry x="55" y="340" width="90" height="40" as="geometry" />
        </mxCell>
        <mxCell id="VNDyjXSrR8N72qDSLMql-30" value="이름" style="ellipse;whiteSpace=wrap;html=1;rounded=0;" vertex="1" parent="1">
          <mxGeometry x="90" y="390" width="100" height="40" as="geometry" />
        </mxCell>
        <mxCell id="VNDyjXSrR8N72qDSLMql-31" value="" style="endArrow=none;html=1;rounded=0;exitX=0.5;exitY=0;exitDx=0;exitDy=0;entryX=0.5;entryY=1;entryDx=0;entryDy=0;" edge="1" parent="1" source="VNDyjXSrR8N72qDSLMql-30" target="VNDyjXSrR8N72qDSLMql-27">
          <mxGeometry width="50" height="50" relative="1" as="geometry">
            <mxPoint x="395" y="500" as="sourcePoint" />
            <mxPoint x="175" y="310" as="targetPoint" />
          </mxGeometry>
        </mxCell>
        <mxCell id="VNDyjXSrR8N72qDSLMql-32" value="전화번호" style="ellipse;whiteSpace=wrap;html=1;rounded=0;" vertex="1" parent="1">
          <mxGeometry x="165" y="340" width="90" height="40" as="geometry" />
        </mxCell>
        <mxCell id="VNDyjXSrR8N72qDSLMql-33" value="포인트" style="ellipse;whiteSpace=wrap;html=1;rounded=0;" vertex="1" parent="1">
          <mxGeometry x="245" y="380" width="90" height="40" as="geometry" />
        </mxCell>
        <mxCell id="VNDyjXSrR8N72qDSLMql-34" value="" style="endArrow=none;html=1;rounded=0;entryX=0.5;entryY=0;entryDx=0;entryDy=0;exitX=0.65;exitY=1;exitDx=0;exitDy=0;exitPerimeter=0;" edge="1" parent="1" source="VNDyjXSrR8N72qDSLMql-27" target="VNDyjXSrR8N72qDSLMql-32">
          <mxGeometry width="50" height="50" relative="1" as="geometry">
            <mxPoint x="225" y="320" as="sourcePoint" />
            <mxPoint x="115" y="450" as="targetPoint" />
          </mxGeometry>
        </mxCell>
        <mxCell id="VNDyjXSrR8N72qDSLMql-35" value="" style="endArrow=none;html=1;rounded=0;entryX=0.5;entryY=0;entryDx=0;entryDy=0;exitX=0.75;exitY=1;exitDx=0;exitDy=0;" edge="1" parent="1" source="VNDyjXSrR8N72qDSLMql-27" target="VNDyjXSrR8N72qDSLMql-33">
          <mxGeometry width="50" height="50" relative="1" as="geometry">
            <mxPoint x="215" y="300" as="sourcePoint" />
            <mxPoint x="320" y="350" as="targetPoint" />
          </mxGeometry>
        </mxCell>
        <mxCell id="VNDyjXSrR8N72qDSLMql-36" value="" style="ellipse;whiteSpace=wrap;html=1;rounded=0;" vertex="1" parent="1">
          <mxGeometry x="510" y="150" width="100" height="60" as="geometry" />
        </mxCell>
        <mxCell id="VNDyjXSrR8N72qDSLMql-37" value="온도" style="ellipse;whiteSpace=wrap;html=1;rounded=0;" vertex="1" parent="1">
          <mxGeometry x="515" y="160" width="90" height="40" as="geometry" />
        </mxCell>
        <mxCell id="VNDyjXSrR8N72qDSLMql-39" value="n" style="text;html=1;strokeColor=none;fillColor=none;align=center;verticalAlign=middle;whiteSpace=wrap;rounded=0;" vertex="1" parent="1">
          <mxGeometry x="200" y="30" width="60" height="30" as="geometry" />
        </mxCell>
        <mxCell id="VNDyjXSrR8N72qDSLMql-40" value="m" style="text;html=1;strokeColor=none;fillColor=none;align=center;verticalAlign=middle;whiteSpace=wrap;rounded=0;" vertex="1" parent="1">
          <mxGeometry x="335" y="30" width="60" height="30" as="geometry" />
        </mxCell>
        <mxCell id="VNDyjXSrR8N72qDSLMql-43" value="일일 주문" style="rounded=1;whiteSpace=wrap;html=1;" vertex="1" parent="1">
          <mxGeometry x="487.5" y="250" width="120" height="60" as="geometry" />
        </mxCell>
        <mxCell id="VNDyjXSrR8N72qDSLMql-44" value="" style="endArrow=none;html=1;rounded=0;exitX=0.5;exitY=0;exitDx=0;exitDy=0;entryX=0.25;entryY=1;entryDx=0;entryDy=0;" edge="1" parent="1" source="VNDyjXSrR8N72qDSLMql-45" target="VNDyjXSrR8N72qDSLMql-43">
          <mxGeometry width="50" height="50" relative="1" as="geometry">
            <mxPoint x="487.5" y="380" as="sourcePoint" />
            <mxPoint x="537.5" y="310" as="targetPoint" />
          </mxGeometry>
        </mxCell>
        <mxCell id="VNDyjXSrR8N72qDSLMql-45" value="&lt;u&gt;주문번호&lt;/u&gt;" style="ellipse;whiteSpace=wrap;html=1;rounded=0;" vertex="1" parent="1">
          <mxGeometry x="417.5" y="340" width="90" height="40" as="geometry" />
        </mxCell>
        <mxCell id="VNDyjXSrR8N72qDSLMql-46" value="메뉴번호" style="ellipse;whiteSpace=wrap;html=1;rounded=0;" vertex="1" parent="1">
          <mxGeometry x="452.5" y="390" width="100" height="40" as="geometry" />
        </mxCell>
        <mxCell id="VNDyjXSrR8N72qDSLMql-47" value="" style="endArrow=none;html=1;rounded=0;exitX=0.5;exitY=0;exitDx=0;exitDy=0;entryX=0.5;entryY=1;entryDx=0;entryDy=0;" edge="1" parent="1" source="VNDyjXSrR8N72qDSLMql-46" target="VNDyjXSrR8N72qDSLMql-43">
          <mxGeometry width="50" height="50" relative="1" as="geometry">
            <mxPoint x="757.5" y="500" as="sourcePoint" />
            <mxPoint x="537.5" y="310" as="targetPoint" />
          </mxGeometry>
        </mxCell>
        <mxCell id="VNDyjXSrR8N72qDSLMql-48" value="메뉴옵션" style="ellipse;whiteSpace=wrap;html=1;rounded=0;" vertex="1" parent="1">
          <mxGeometry x="527.5" y="340" width="90" height="40" as="geometry" />
        </mxCell>
        <mxCell id="VNDyjXSrR8N72qDSLMql-49" value="주문날짜" style="ellipse;whiteSpace=wrap;html=1;rounded=0;" vertex="1" parent="1">
          <mxGeometry x="610" y="380" width="90" height="40" as="geometry" />
        </mxCell>
        <mxCell id="VNDyjXSrR8N72qDSLMql-50" value="" style="endArrow=none;html=1;rounded=0;entryX=0.5;entryY=0;entryDx=0;entryDy=0;exitX=0.65;exitY=1;exitDx=0;exitDy=0;exitPerimeter=0;" edge="1" parent="1" source="VNDyjXSrR8N72qDSLMql-43" target="VNDyjXSrR8N72qDSLMql-48">
          <mxGeometry width="50" height="50" relative="1" as="geometry">
            <mxPoint x="587.5" y="320" as="sourcePoint" />
            <mxPoint x="477.5" y="450" as="targetPoint" />
          </mxGeometry>
        </mxCell>
        <mxCell id="VNDyjXSrR8N72qDSLMql-51" value="" style="endArrow=none;html=1;rounded=0;entryX=0.5;entryY=0;entryDx=0;entryDy=0;exitX=0.75;exitY=1;exitDx=0;exitDy=0;" edge="1" parent="1" source="VNDyjXSrR8N72qDSLMql-43" target="VNDyjXSrR8N72qDSLMql-49">
          <mxGeometry width="50" height="50" relative="1" as="geometry">
            <mxPoint x="577.5" y="300" as="sourcePoint" />
            <mxPoint x="682.5" y="350" as="targetPoint" />
          </mxGeometry>
        </mxCell>
      </root>
    </mxGraphModel>
  </diagram>
</mxfile>
